<?xml version="1.0" encoding="UTF-8" standalone="no"?>
<svg
   width="1941.1692"
   height="595.56122"
   viewBox="0 0 149.6688 57.398999"
   version="1.1"
   id="svg71"
   style="fill:white;"
   sodipodi:docname="sports.svg"
   inkscape:version="1.2.2 (b0a8486541, 2022-12-01)"
   xmlns:inkscape="http://www.inkscape.org/namespaces/inkscape"
   xmlns:sodipodi="http://sodipodi.sourceforge.net/DTD/sodipodi-0.dtd"
   xmlns="http://www.w3.org/2000/svg"
   xmlns:svg="http://www.w3.org/2000/svg">
  <defs
     id="defs75" />
  <sodipodi:namedview
     id="namedview73"
     pagecolor="#ffffff"
     bordercolor="#000000"
     borderopacity="0.25"
     inkscape:showpageshadow="2"
     inkscape:pageopacity="0.0"
     inkscape:pagecheckerboard="0"
     inkscape:deskcolor="#d1d1d1"
     showgrid="false"
     inkscape:zoom="0.28531759"
     inkscape:cx="1542.1412"
     inkscape:cy="793.85222"
     inkscape:window-width="1920"
     inkscape:window-height="1016"
     inkscape:window-x="0"
     inkscape:window-y="0"
     inkscape:window-maximized="1"
     inkscape:current-layer="g69" />
  <g
     fill-rule="evenodd"
     clip-rule="evenodd"
     id="g69">
    <!-- <path fill="#fff" d="M0 0h192.756v192.756H0V0z" /> -->
    <path
       d="m 88.780398,40.051 h 9.895 L 102.5214,23.99 c 0.613,-2.177 1.223,-3.789 2.068,-4.567 2.014,-1.852 7.424,-1.562 7.424,-1.562 l 2.189,-9.0799996 c -3.434,0.018 -8.75,-0.046 -12.051,0.856 C 100.2434,10.159 98.229398,11.623 97.085398,12.814 c -2.09,2.175 -3.338,6.676 -3.338,6.676 z M 3.2013983,16.997 H 39.371398 c 2.11,0.053 3.8,0.863 4.58,1.949 0.95,1.324 1.963,3.298 0.401,7.023 -1.668,3.977 -4.647,5.167 -7.757,5.26 h -6.476 l 2.67,-11.189 h -9.96 l -8.906,37.359 h 9.907 l 4.152,-17.357 c 0,0 2.879,0.012 6.609,0.014 2.881,-0.061 6.261,-0.4 9.451,-2.061 3.449,-1.795 5.803,-4.791 7.278,-7.473 1.361,-2.475 2.238,-6.528 2.443,-8.759 0.18,-1.952 0.43,-5.23 -1.962,-8.425 -1.088,-1.454 -3.473,-3.235 -5.889,-3.8049996 -2.638,-0.621 -6.315,-0.655 -6.315,-0.655 H 1.9463983 C -3.8486019,8.9320004 -6.9326019,10.935 -8.6556019,12.697 c -1.8610001,1.905 -2.8130001,4.526 -2.8040001,6.809 0.009,2.163 0.584,4.462 1.8420001,5.849 1.144,1.26 3.058,2.657 6.863,2.911 h 6.6090002 c 0,0 0.913,0.029 1.416,0.253 0.487,0.219 0.846,0.818 0.761,1.402 -0.104,0.711 -0.337,1.611 -2.75,1.709 H -15.517602 l -3.191,8.465 H 3.8433983 c 3.004,-0.039 8.5539997,-0.598 11.0949997,-4.967 0.946,-1.627 1.789,-4.67 1.82,-6.929 0.032,-2.286 -0.756,-3.821 -1.219,-4.606 -0.61,-1.036 -1.766,-2.229 -4.085,-3.004 -1.207,-0.404 -3.8449997,-0.48 -3.8449997,-0.48 h -6.209 c -1.20100002,0 -2.12500002,-0.362 -2.00200002,-1.562 0.07,-0.682 0.608,-1.245 1.282,-1.442 C 1.1773983,16.958 3.2013983,16.997 3.2013983,16.997 Z M 74.739398,15.336 c -2.459,0.026 -4.592,0.958 -6.668,2.959 -1.974,1.903 -3.029,4.863 -3.237,7.475 -0.129,1.615 0.327,3.864 1.403,5.237 1.056,1.348 3.195,2.371 5.21,2.32 3.057,-0.076 5.173,-1.01 6.863,-2.861 1.984,-2.172 3.289,-5.43 3.211,-8.517 -0.043,-1.624 -0.391,-3.279 -1.834,-4.724 -1.446,-1.445 -3.419,-1.905 -4.948,-1.889 l 1.283,-7.3629996 c 4.1,-0.053 8.613,1.069 11.496,3.8479996 2.885,2.779 3.482,6.458 3.432,9.476 -0.062,3.769 -1.371,8.949 -5.994,13.936 -4.074,4.393 -11.163,6.1 -16.076,5.877 -4.913,-0.223 -8.547,-1.777 -11.215,-4.529 -2.337,-2.41 -3.178,-5.225 -3.178,-8.781 0,-3.14 1.003,-7.215 4.019,-11.226 3.538,-4.705 10.308,-8.5069996 17.517,-8.5999996 z M 119.0424,0 h 9.975 l -2.164,8.9330004 h 7.57 L 132.3414,17.772 h -7.57 l -2.244,9.827 c -0.359,2.002 -0.012,3.022 1.123,3.698 0.467,0.279 2.043,0.4 2.043,0.4 h 21.549 c 2.404,-0.039 4.129,-0.256 4.205,-1.855 0.082,-1.643 -1.961,-1.602 -1.961,-1.602 h -6.13 c -3.205,-0.16 -5.889,-1.042 -7.17,-2.403 -1.107,-1.176 -2.123,-2.924 -2.043,-6.329 0.09,-3.844 2.123,-6.569 3.004,-7.41 0.881,-0.841 4.139,-3.2449996 8.865,-3.1649996 h 22.365 L 165.2664,16.984 h -18.346 c -1.201,0.04 -1.748,0.219 -2.082,0.641 -0.348,0.44 -0.516,1.132 -0.281,1.683 0.219,0.512 0.762,0.721 2.283,0.801 h 5.729 c 2.924,0.16 5.355,0.618 6.809,1.842 1.326,1.116 2.604,2.563 2.604,6.289 0,4.208 -2.076,6.934 -3.484,8.372 -1.744,1.781 -4.166,3.084 -11.416,3.445 h -26.596 c -2.885,-0.041 -5.248,0.08 -7.451,-2.443 -2.203,-2.523 -1.455,-5.676 -1.242,-7.438 z"
       id="path67" />
  </g>
</svg>
